<svg width="34" height="40" viewBox="0 0 34 40" fill="none" xmlns="http://www.w3.org/2000/svg">
<path d="M0 15.469V33.0539C0 36.8902 3.17132 40 7.08331 40H26.9167C30.8287 40 34 36.8902 34 33.0539V15.469C34 13.4075 33.0662 11.4526 31.4513 10.1329L20.6277 1.28796C18.5263 -0.429322 15.4737 -0.429322 13.3723 1.28797L2.54869 10.1329C0.933745 11.4526 0 13.4075 0 15.469Z" fill="white"/>
<path fill-rule="evenodd" clip-rule="evenodd" d="M8.32362 26.6703C8.89039 25.9594 10.0062 25.7865 10.8157 26.2841C14.2287 28.3819 18.7713 28.3819 22.1842 26.2841C22.9939 25.7865 24.1096 25.9594 24.6764 26.6703C25.2431 27.3812 25.0462 28.361 24.2366 28.8586C19.5913 31.7138 13.4086 31.7138 8.76341 28.8586C7.95376 28.361 7.75691 27.3812 8.32362 26.6703Z" fill="#7F42E1"/>
</svg>
