<svg width="46" height="46" viewBox="0 0 46 46" fill="none" xmlns="http://www.w3.org/2000/svg">
<g clip-path="url(#clip0_2013_16)">
<path fill-rule="evenodd" clip-rule="evenodd" d="M32.5844 36.2054C36.0848 32.0146 37.5591 26.2427 36.0384 20.5677C33.5564 11.3047 24.0352 5.80757 14.7722 8.28958C5.50916 10.7716 0.0120734 20.2928 2.49409 29.5559C4.97611 38.8189 14.4973 44.316 23.7604 41.8339C25.0772 41.4811 26.318 40.986 27.4705 40.3696L31.5985 43.5534L32.5844 36.2054Z" fill="white"/>
<path d="M24.5007 31.3876C24.5007 34.1064 22.2968 36.3103 19.578 36.3103V36.3103C16.8593 36.3103 14.6553 34.1064 14.6553 31.3876L14.6553 29.1724L24.5007 29.1724L24.5007 31.3876Z" fill="#7F42E1"/>
<path fill-rule="evenodd" clip-rule="evenodd" d="M17.3147 3C17.3147 1.89543 18.2101 1 19.3147 1C32.2825 0.999999 42.7951 11.5125 42.7951 24.4804C42.7951 25.5849 41.8996 26.4804 40.7951 26.4804C39.6905 26.4804 38.7951 25.5849 38.7951 24.4804C38.7951 13.7217 30.0734 5 19.3147 5C18.2101 5 17.3147 4.10457 17.3147 3Z" fill="white"/>
<rect x="38.4482" y="23.6207" width="5.55172" height="10.3103" rx="2.77586" fill="white"/>
</g>
<defs>
<clipPath id="clip0_2013_16">
<rect width="46" height="46" fill="white"/>
</clipPath>
</defs>
</svg>
